<?xml version="1.0" encoding="UTF-8"?>
<svg id="_Слой_2" data-name="Слой 2" xmlns="http://www.w3.org/2000/svg" xmlns:xlink="http://www.w3.org/1999/xlink" viewBox="0 0 346.67 91.55">
  <defs>
    <style>
      .cls-1 {
        fill: #fafbfc;
      }

      .cls-2 {
        fill: url(#_Безымянный_градиент_12);
      }
    </style>
    <linearGradient id="_Безымянный_градиент_12" data-name="Безымянный градиент 12" x1="169.58" y1="45.77" x2="261.13" y2="45.77" gradientUnits="userSpaceOnUse">
      <stop offset="0" stop-color="#3ce74f"/>
      <stop offset="1" stop-color="#bfdd71"/>
    </linearGradient>
  </defs>
  <g id="_Слой_2-2" data-name="Слой 2">
    <g>
      <path class="cls-2" d="M215.36,0c-25.28,0-45.78,20.49-45.78,45.77s20.5,45.78,45.78,45.78,45.77-20.49,45.77-45.78S240.63,0,215.36,0ZM215.36,75.54c-16.44,0-29.77-13.33-29.77-29.77s13.33-29.77,29.77-29.77,29.77,13.33,29.77,29.77-13.33,29.77-29.77,29.77Z"/>
      <path class="cls-1" d="M43.15,36.78v-9.34c0-2.05-1.79-3.72-3.99-3.72H3.99C1.79,23.72,0,22.06,0,20.01v-8.56C0,9.39,1.79,7.73,3.99,7.73h71.15c3.58,0,5.35,4.06,2.78,6.38l-27.99,25.34c-2.53,2.29-6.77.62-6.77-2.67ZM35.99,54.7v9.33c0,2.05,1.79,3.72,3.99,3.72h35.17c2.2,0,3.99,1.66,3.99,3.72v8.64c0,2.05-1.79,3.72-3.99,3.72H4c-3.58,0-5.35-4.05-2.78-6.38l28-25.4c2.53-2.29,6.77-.63,6.77,2.66Z"/>
      <path class="cls-1" d="M85.54,75.51h0c0,4.37,3.55,7.92,7.92,7.92h61.97c4.37,0,7.92-3.55,7.92-7.92h0c0-4.37-3.55-7.92-7.92-7.92h-61.97c-4.37,0-7.92,3.55-7.92,7.92ZM85.54,15.8h0c0,4.37,3.55,7.92,7.92,7.92h62.04c4.37,0,7.92-3.55,7.92-7.92h0c0-4.37-3.55-7.92-7.92-7.92h-62.04c-4.37,0-7.92,3.55-7.92,7.92ZM85.54,75.51h0c0,4.37,3.55,7.92,7.92,7.92h62.04c4.37,0,7.92-3.55,7.92-7.92h0c0-4.37-3.55-7.92-7.92-7.92h-62.04c-4.37,0-7.92,3.55-7.92,7.92Z"/>
      <rect class="cls-1" x="85.54" y="37.64" width="77.88" height="15.84" rx="7.92" ry="7.92"/>
      <path class="cls-1" d="M297.33,42.98h-10.01c-2.05,0-3.72,1.78-3.72,3.97v32.59c0,2.19-1.66,3.97-3.72,3.97h-8.64c-2.05,0-3.72-1.78-3.72-3.97V11.86c0-3.51,3.95-5.3,6.31-2.85l26.08,27.14c2.39,2.49.74,6.82-2.59,6.82ZM316.86,48.34h10.01c2.05,0,3.72-1.78,3.72-3.98V11.71c0-2.2,1.66-3.98,3.72-3.98h8.64c2.05,0,3.72,1.78,3.72,3.98v67.81c0,3.52-3.96,5.31-6.31,2.85l-26.08-27.2c-2.39-2.49-.74-6.83,2.59-6.83Z"/>
    </g>
  </g>
</svg>