<?xml version="1.0" encoding="UTF-8"?>
<svg id="_Слой_2" data-name="Слой 2" xmlns="http://www.w3.org/2000/svg" xmlns:xlink="http://www.w3.org/1999/xlink" viewBox="0 0 230.65 230.65">
  <defs>
    <style>
      .cls-1 {
        fill: url(#_Безымянный_градиент_12);
      }

      .cls-2 {
        fill: url(#_Безымянный_градиент_12-2);
      }

      .cls-3 {
        fill: #3a444d;
      }

      .cls-4 {
        fill: #e8f3f7;
      }

      .cls-5 {
        fill: #2c9aff;
      }
    </style>
    <linearGradient id="_Безымянный_градиент_12" data-name="Безымянный градиент 12" x1="0" y1="115.32" x2="230.65" y2="115.32" gradientUnits="userSpaceOnUse">
      <stop offset="0" stop-color="#3ce74f"/>
      <stop offset="1" stop-color="#bfdd71"/>
    </linearGradient>
    <linearGradient id="_Безымянный_градиент_12-2" data-name="Безымянный градиент 12" x1="0" y1="115.32" x2="205.54" y2="115.32" xlink:href="#_Безымянный_градиент_12"/>
  </defs>
  <g id="_Слой_2-2" data-name="Слой 2">
    <g>
      <circle class="cls-1" cx="115.32" cy="115.32" r="115.32"/>
      <path class="cls-2" d="M193.2,157.63c13.61,7.39,16.54,25.7,5.88,36.94-21.5,22.69-51.69,36.07-83.77,36.07C52.06,230.64,0,178.59,0,115.32S52.06,0,115.32,0c11.95,0,23.78,1.86,35.06,5.46,14.65,4.67,20.77,22.09,12.52,35.07h0c-5.72,9-16.78,13.07-26.95,9.84-6.51-2.06-13.44-3.18-20.63-3.18-36.46,0-66.25,28.65-68.04,64.68-1.95,39.21,30.21,72.36,69.46,71.56,18.92-.39,35.96-8.48,48.07-21.28,7.35-7.77,19-9.63,28.39-4.53h0Z"/>
      <circle class="cls-4" cx="115.32" cy="115.32" r="68.13"/>
      <g>
        <rect class="cls-5" x="124.04" y="123.92" width="14.88" height="14.88" rx="2.32" ry="2.32"/>
        <path class="cls-3" d="M138.92,94.17v10.02c0,.62-.24,1.21-.68,1.64l-32.28,32.28c-.44.44-1.03.68-1.64.68h-10.26c-1.28,0-2.32-1.04-2.32-2.32v-9.9c0-.62.24-1.21.68-1.64l1.01-1.01,17.2-17.2h-16.57c-1.28,0-2.32-1.04-2.32-2.32v-10.23c0-1.28,1.04-2.32,2.32-2.32h42.54c1.28,0,2.32,1.04,2.32,2.32Z"/>
      </g>
    </g>
  </g>
</svg>