<?xml version="1.0" encoding="UTF-8" standalone="no"?>
<svg
   viewBox="0 0 47.18 46.95"
   version="1.1"
   id="svg1"
   sodipodi:docname="logo-white.svg"
   inkscape:version="1.3.2 (091e20e, 2023-11-25, custom)"
   xmlns:inkscape="http://www.inkscape.org/namespaces/inkscape"
   xmlns:sodipodi="http://sodipodi.sourceforge.net/DTD/sodipodi-0.dtd"
   xmlns="http://www.w3.org/2000/svg"
   xmlns:svg="http://www.w3.org/2000/svg">
  <defs
     id="defs1" />
  <sodipodi:namedview
     id="namedview1"
     pagecolor="#ffffff"
     bordercolor="#000000"
     borderopacity="0.25"
     inkscape:showpageshadow="2"
     inkscape:pageopacity="0.0"
     inkscape:pagecheckerboard="0"
     inkscape:deskcolor="#d1d1d1"
     inkscape:zoom="13.419215"
     inkscape:cx="19.337942"
     inkscape:cy="23.883663"
     inkscape:window-width="1920"
     inkscape:window-height="1129"
     inkscape:window-x="-8"
     inkscape:window-y="-8"
     inkscape:window-maximized="1"
     inkscape:current-layer="svg1" />
  <g
     id="g1">
    <rect
       x="32.31"
       y="32.08"
       width="14.88"
       height="14.88"
       rx="2.32"
       ry="2.32"
       fill="#2c9aff"
       id="rect1" />
    <path
       d="M47.18,2.32v10.02c0,.62-.24,1.21-.68,1.64L14.22,46.27c-.44.44-1.03.68-1.64.68H2.32c-1.28,0-2.32-1.04-2.32-2.32v-9.9c0-.62.24-1.21.68-1.64l1.01-1.01L18.89,14.88H2.32c-1.28,0-2.32-1.04-2.32-2.32V2.32C0,1.04,1.04,0,2.32,0h42.54c1.28,0,2.32,1.04,2.32,2.32Z"
       fill="#3a444d"
       id="path1" />
  </g>
</svg>
