<?xml version="1.0" encoding="UTF-8"?>
<svg xmlns="http://www.w3.org/2000/svg" viewBox="0 0 79.14 76.09">
  <defs>
    <linearGradient id="logoGradient" x1="0" y1="59.67" x2="79.14" y2="59.67" gradientUnits="userSpaceOnUse">
      <stop offset="0" stop-color="#3ce74f"/>
      <stop offset="1" stop-color="#bfdd71"/>
    </linearGradient>
  </defs>
  <g>
    <path fill="#454d58" d="M43.15,29.05v-9.34c0-2.05-1.79-3.72-3.99-3.72H3.99c-2.2,0-3.99-1.66-3.99-3.72V3.72C0,1.66,1.79,0,3.99,0h71.15c3.58,0,5.35,4.06,2.78,6.38l-27.99,25.34c-2.53,2.29-6.77.62-6.77-2.67Z"/>
    <path fill="url(#logoGradient)" d="M35.99,46.97v9.33c0,2.05,1.79,3.72,3.99,3.72h35.17c2.2,0,3.99,1.66,3.99,3.72v8.64c0,2.05-1.79,3.72-3.99,3.72H4c-3.58,0-5.35-4.05-2.78-6.38l28-25.4c2.53-2.29,6.77-.63,6.77,2.66Z"/>
  </g>
</svg>
