<?xml version="1.0" encoding="UTF-8"?>
<svg id="_Слой_2" data-name="Слой 2" xmlns="http://www.w3.org/2000/svg" xmlns:xlink="http://www.w3.org/1999/xlink" viewBox="0 0 32.59 32.17">
  <defs>
    <style>
      .cls-1 {
        fill: #00b856;
      }

      .cls-2 {
        fill: #fff;
      }

      .cls-3 {
        fill: none;
      }

      .cls-4 {
        clip-path: url(#clippath);
      }
    </style>
    <clipPath id="clippath">
      <rect class="cls-3" x="0" y="0" width="32.59" height="32.17" rx="16.09" ry="16.09"/>
    </clipPath>
  </defs>
  <g id="_Слой_2-2" data-name="Слой 2">
    <g class="cls-4">
      <rect class="cls-2" x="0" y="-3.52" width="33.17" height="36.83"/>
      <g>
        <path class="cls-1" d="M18.48-.72c2.72.21,5.57,1.38,7.78,2.91,5.89,4.09,8.53,11.47,6.69,18.35-2.11,7.84-9.84,13.23-18.15,12.5v-14.81h2.29s.14.16.28.11l-.11-.22c.43.09,1.23-.71,1.23-1.04V-.72ZM20.31,23.26c0-1.2-1-2.17-2.23-2.17s-2.23.97-2.23,2.17,1,2.17,2.23,2.17,2.23-.97,2.23-2.17ZM25.38,23.26c0-1.2-1-2.18-2.23-2.18s-2.23.98-2.23,2.18,1,2.18,2.23,2.18,2.23-.98,2.23-2.18ZM30.45,23.27c0-1.2-1-2.18-2.23-2.18s-2.23.98-2.23,2.18,1,2.18,2.23,2.18,2.23-.98,2.23-2.18Z"/>
        <path class="cls-1" d="M16.25-.94v16.99h-2.62c-.26,0-1.06.78-1.06,1.03v15.63C6.52,31.4,1.5,26.8-.23,20.98-3.47,10.02,4.64-.74,16.25-.94ZM15.21,10.96c0-1.2-1-2.18-2.23-2.18s-2.23.98-2.23,2.18,1,2.18,2.23,2.18,2.23-.98,2.23-2.18Z"/>
      </g>
    </g>
  </g>
</svg>