<?xml version="1.0" encoding="UTF-8"?>
<svg id="_Слой_2" data-name="Слой 2" xmlns="http://www.w3.org/2000/svg" xmlns:xlink="http://www.w3.org/1999/xlink" viewBox="0 0 32.17 32.17">
  <defs>
    <style>
      .cls-1 {
        fill: #fff;
      }

      .cls-2 {
        fill: none;
      }

      .cls-3 {
        fill: #fe0032;
      }

      .cls-4 {
        clip-path: url(#clippath);
      }
    </style>
    <clipPath id="clippath">
      <circle class="cls-2" cx="16.09" cy="16.09" r="16.09"/>
    </clipPath>
  </defs>
  <g id="_Слой_2-2" data-name="Слой 2">
    <g class="cls-4">
      <g>
        <path class="cls-3" d="M32.17,0v32.17s-32.17,0-32.17,0V0h32.17ZM26.39,6.91s.03-.05.03-.06v-1.06l-.04-.04h-6.32v1.16h2.45l.04.04v4.54h1.38v-4.57h2.46ZM7.59,5.78h-1.99v5.68h1.38v-4.02l1.75,3.37,1.26.03,1.8-3.4v4.02h1.38v-5.68h-1.99l-1.8,3.75-1.8-3.75ZM26.39,22.75c-.11-1.87-2.08-2.09-3.58-2.01-1.71.09-2.66.98-2.75,2.7-.14,2.72,1.69,3.47,4.11,3.18,1.17-.14,2.16-.69,2.23-1.98h-1.38c-.07.66-.68.85-1.24.9-.81.08-2,0-2.24-.95-.09-.36-.1-1.34-.02-1.71.22-1.02,1.32-1.09,2.18-1.03.61.04,1.22.22,1.32.9h1.38Z"/>
        <polygon class="cls-1" points="7.59 5.78 9.39 9.53 11.19 5.78 13.17 5.78 13.17 11.46 11.79 11.46 11.79 7.44 9.99 10.84 8.73 10.81 6.99 7.44 6.99 11.46 5.61 11.46 5.61 5.78 7.59 5.78"/>
        <path class="cls-1" d="M26.39,22.75h-1.38c-.1-.68-.71-.87-1.32-.9-.87-.05-1.96.02-2.18,1.03-.08.37-.08,1.35.02,1.71.25.95,1.43,1.03,2.24.95.57-.06,1.17-.25,1.24-.9h1.38c-.07,1.29-1.06,1.84-2.23,1.98-2.41.3-4.25-.46-4.11-3.18.09-1.72,1.04-2.61,2.75-2.7,1.5-.08,3.47.14,3.58,2.01Z"/>
        <path class="cls-1" d="M26.39,6.91h-2.46v4.57h-1.38v-4.54l-.04-.04h-2.45v-1.16h6.32l.04.04v1.06s-.03.04-.03.06Z"/>
      </g>
    </g>
  </g>
</svg>