<?xml version="1.0" encoding="UTF-8"?>
<svg id="_Слой_2" data-name="Слой 2" xmlns="http://www.w3.org/2000/svg" viewBox="0 0 32.17 32.17">
  <defs>
    <style>
      .cls-1 {
        fill: #090909;
      }

      .cls-2 {
        fill: #f43590;
      }

      .cls-3 {
        fill: #fafafa;
      }
    </style>
  </defs>
  <g id="_Слой_2-2" data-name="Слой 2">
    <g>
      <circle class="cls-1" cx="16.09" cy="16.09" r="16.09"/>
      <g>
        <path class="cls-3" d="M11.91,8.48v3.66h3.52s.09.04.09.09v3.06h-3.6v5.32h4.8v3.09h-3.69c-2.07,0-4.34-2.6-4.26-4.66v-10.55h3.15Z"/>
        <g>
          <rect class="cls-3" x="17.22" y="20.6" width="8.4" height="3.09"/>
          <g>
            <path class="cls-3" d="M16.2,15.29c-.07-2.03,1.35-3.97,3.27-4.59,4.08-1.32,7.72,2.84,5.86,6.72-.58,1.2-2.35,2.67-3.73,2.67h-4.37v-3.09h4.03c.64,0,1.34-.83,1.43-1.43.38-2.43-3.32-2.77-3.4-.29h-3.09Z"/>
            <rect class="cls-2" x="5.16" y="12.14" width="3.14" height="3.14"/>
          </g>
        </g>
      </g>
    </g>
  </g>
</svg>