<?xml version="1.0" encoding="UTF-8"?>
<svg id="_Слой_2" data-name="Слой 2" xmlns="http://www.w3.org/2000/svg" xmlns:xlink="http://www.w3.org/1999/xlink" viewBox="0 0 52.19 52.19">
  <defs>
    <style>
      .cls-1 {
        fill: none;
      }

      .cls-2 {
        fill: #00adef;
      }

      .cls-3 {
        fill: #f9fdfe;
      }

      .cls-4 {
        clip-path: url(#clippath);
      }
    </style>
    <clipPath id="clippath">
      <circle class="cls-1" cx="26.09" cy="22.14" r="16.09"/>
    </clipPath>
  </defs>
  <g id="_Слой_2-2" data-name="Слой 2">
    <g class="cls-4">
      <g>
        <path class="cls-2" d="M52.19,0v52.19H0V0h52.19ZM29.71,12.89c-.72.71-.28,1.99-.51,2.94-.79,3.27-5.38,3.29-6.21,0-.24-.95.22-2.2-.5-2.92-.78-.79-2.14-.22-2.26.81-.34,3.04,1.04,5.8,3.93,6.91.24.09.56.07.6.33.1.78-.08,1.78,0,2.58-2.19.41-3.92,2.31-4.38,4.46-.14.65-.28,2.36-.04,2.94.26.63,1.05.96,1.67.72,1.32-.5.72-2.12.97-3.2.63-2.67,4.14-3.4,5.7-1.12.81,1.18.47,1.87.59,3.12.17,1.72,2.53,1.67,2.67,0,.2-2.34-.5-4.58-2.42-5.99-.6-.44-1.37-.86-2.11-.94v-2.78c2.22-.43,3.92-2.34,4.39-4.51.15-.69.29-2.44-.05-3.05-.41-.73-1.45-.91-2.06-.31ZM28.37,29.2c0-1.26-1.02-2.27-2.27-2.27s-2.27,1.02-2.27,2.27,1.02,2.27,2.27,2.27,2.27-1.02,2.27-2.27ZM20.74,34.64c-.15-.1-.87-.14-.85.12l1.53,2.41.05,2.33c.05.07.7.13.79.03.17-.19-.03-1.91.08-2.35.15-.58,1.26-1.69,1.51-2.32.17-.43-.58-.31-.83-.2l-1.13,1.71-1.15-1.72ZM28.18,36.65c.6-.02,1.02.21.87-.61-.06-.31-.72-.02-.84-.2-.11-.16.1-.73-.14-.84-.12-.06-.56-.05-.66.02-.14.1-.06.85-.09.88-.04.04-.5-.08-.53.14-.11.96.4.49.53.61.16.16-.33,2.29.38,2.84.41.32,1.56.1,1.53-.25,0-.06-.24-.45-.28-.48-.16-.1-.36.17-.55.15-.06,0-.21-.11-.21-.15v-2.12ZM23.74,39.24c.33.31.89.47,1.34.42,2.18-.22,1.98-4.2-.56-3.81-1.44.22-1.74,2.47-.78,3.39ZM32.3,39.55v-2.64c0-.09-.2-.57-.26-.66-.38-.52-1.38-.51-1.9-.23-.13.07-.48.35-.49.49,0,.1.43.43.54.42s.27-.24.43-.32c.42-.19.89-.03.81.49-.89.02-2.02.33-1.98,1.42s1.25,1.42,2.06.9c.12.29.53.14.78.12Z"/>
        <g>
          <path class="cls-2" d="M23.74,39.24c-.97-.92-.67-3.16.78-3.39,2.54-.4,2.74,3.58.56,3.81-.45.05-1.01-.11-1.34-.42ZM25.49,38.66c.42-.55.39-1.86-.39-2.08-1.32-.38-1.46,2.17-.42,2.33.3.05.63,0,.81-.25Z"/>
          <path class="cls-2" d="M20.74,34.64l1.15,1.72,1.13-1.71c.25-.11,1-.23.83.2-.25.63-1.35,1.74-1.51,2.32-.12.44.08,2.16-.08,2.35-.09.1-.74.04-.79-.03l-.05-2.33-1.53-2.41c-.02-.26.69-.22.85-.12Z"/>
          <path class="cls-2" d="M28.18,36.65v2.12s.14.14.21.15c.19.02.39-.25.55-.15.04.03.28.42.28.48.03.35-1.12.57-1.53.25-.7-.55-.22-2.69-.38-2.84-.12-.12-.64.35-.53-.61.03-.22.49-.11.53-.14.03-.03-.05-.78.09-.88.1-.07.55-.08.66-.02.24.12.03.68.14.84.12.17.79-.11.84.2.15.81-.27.59-.87.61Z"/>
          <path class="cls-2" d="M25.49,38.66c-.19.24-.52.3-.81.25-1.04-.16-.9-2.72.42-2.33.78.23.81,1.53.39,2.08Z"/>
          <g>
            <path class="cls-3" d="M29.71,12.89c.61-.6,1.65-.42,2.06.31.34.6.2,2.35.05,3.05-.46,2.17-2.17,4.08-4.39,4.51v2.78c.74.08,1.51.5,2.1.94,1.92,1.42,2.62,3.66,2.42,5.99-.14,1.66-2.5,1.72-2.67,0-.12-1.25.21-1.94-.59-3.12-1.56-2.28-5.08-1.55-5.7,1.12-.25,1.08.35,2.7-.97,3.2-.62.24-1.41-.1-1.67-.72-.24-.58-.1-2.29.04-2.94.46-2.15,2.19-4.06,4.38-4.46-.08-.81.1-1.8,0-2.58-.03-.26-.35-.24-.6-.33-2.89-1.11-4.27-3.88-3.93-6.91.12-1.03,1.47-1.6,2.26-.81.72.72.26,1.97.5,2.92.83,3.29,5.41,3.27,6.21,0,.23-.95-.21-2.23.51-2.94Z"/>
            <circle class="cls-3" cx="26.09" cy="29.2" r="2.27"/>
          </g>
        </g>
        <path class="cls-2" d="M32.3,39.55c-.25.03-.67.17-.78-.12-.81.52-2.02.15-2.06-.9s1.09-1.4,1.98-1.42c.08-.52-.39-.69-.81-.49-.16.07-.32.31-.43.32s-.55-.32-.54-.42c.01-.14.37-.43.49-.49.52-.28,1.52-.29,1.9.23.07.09.26.58.26.66v2.64ZM31.49,37.81c-.47-.05-1.68.33-1.1.96.32.35,1.1.03,1.1-.12v-.84Z"/>
        <path class="cls-2" d="M31.49,37.81v.84c0,.15-.79.46-1.1.12-.58-.63.64-1.01,1.1-.96Z"/>
      </g>
    </g>
  </g>
</svg>