<?xml version="1.0" encoding="UTF-8"?>
<svg id="_Слой_2" data-name="Слой 2" xmlns="http://www.w3.org/2000/svg" xmlns:xlink="http://www.w3.org/1999/xlink" viewBox="0 0 71.99 71.99">
  <defs>
    <style>
      .cls-1 {
        fill: none;
      }

      .cls-2 {
        fill: #fddc2c;
      }

      .cls-3 {
        fill: #fdfdfa;
      }

      .cls-4 {
        clip-path: url(#clippath);
      }

      .cls-5 {
        fill: #343434;
      }
    </style>
    <clipPath id="clippath">
      <circle class="cls-1" cx="36" cy="33.84" r="16.09"/>
    </clipPath>
  </defs>
  <g id="_Слой_2-2" data-name="Слой 2">
    <g class="cls-4">
      <g>
        <path class="cls-2" d="M71.99,0v71.99H0V0h71.99ZM25.84,25.52c-.2.09-.35.26-.35.49.16,3.3-.19,6.76,0,10.04.31,5.36,3.87,6.57,7.91,8.87.57.33,2.05,1.42,2.64,1.4.3-.01,1.78-.89,2.18-1.11,4.33-2.42,8.26-4.01,8.28-9.72,0-2.3-.04-4.64-.1-6.93-.02-.81.1-1.87,0-2.63-.02-.13-.02-.24-.14-.33l-20.42-.06Z"/>
        <g>
          <path class="cls-3" d="M25.84,25.52l20.42.06c.11.09.12.2.14.33.1.77-.03,1.82,0,2.63.07,2.3.11,4.64.1,6.93-.02,5.71-3.95,7.3-8.28,9.72-.39.22-1.87,1.1-2.18,1.11-.59.03-2.06-1.07-2.64-1.4-4.04-2.29-7.6-3.51-7.91-8.87-.19-3.28.15-6.74,0-10.04,0-.23.16-.4.35-.49ZM41.06,34.12v-3.33s-.13-.14-.14-.14h-9.98v3.47c.31-.09.46-.33.78-.49.22-.11,1.03-.36,1.24-.36h1.36v5.01c0,.47-.53,1.15-.56,1.64h4.5c-.23-.63-.59-1.23-.66-1.92-.05-.49-.09-4.45.04-4.65.15-.21,1.63-.05,1.95.03.58.14.96.5,1.48.72Z"/>
          <path class="cls-5" d="M41.06,34.12c-.52-.23-.9-.58-1.48-.72-.32-.08-1.8-.25-1.95-.03-.13.19-.09,4.15-.04,4.65.07.69.43,1.29.66,1.92h-4.5c.03-.49.56-1.17.56-1.64v-5.01h-1.36c-.21,0-1.01.25-1.24.36-.32.15-.47.39-.78.49v-3.47h9.98s.14.13.14.14v3.33Z"/>
        </g>
      </g>
    </g>
  </g>
</svg>