<?xml version="1.0" encoding="UTF-8"?>
<svg id="_Слой_2" data-name="Слой 2" xmlns="http://www.w3.org/2000/svg" xmlns:xlink="http://www.w3.org/1999/xlink" viewBox="0 0 32.2 32.2">
  <defs>
    <style>
      .cls-1 {
        fill: #fcca0f;
      }

      .cls-2 {
        fill: #090909;
      }

      .cls-3 {
        fill: none;
      }

      .cls-4 {
        clip-path: url(#clippath);
      }
    </style>
    <clipPath id="clippath">
      <circle class="cls-3" cx="16.09" cy="16.11" r="16.09"/>
    </clipPath>
  </defs>
  <g id="_Слой_2-2" data-name="Слой 2">
    <g class="cls-4">
      <g>
        <path class="cls-2" d="M24.16,2.26c.45.11.89.45,1.28.72,1.82,1.28,3.28,2.9,4.41,4.8.62,1.65.57,3.4.07,5.08-2.14,7.16-11.63,13.12-18.8,13.79-3.15.29-7.21-.17-9.16-3.01C.61,21.69-.04,17.99.04,15.66c.11.31.13.64.22.95,1.01,3.29,5.5,3.23,8.26,2.74,5.44-.96,11.95-4.83,15.14-9.36,1.59-2.26,2.91-5.52.5-7.73Z"/>
        <path class="cls-2" d="M8.57,30.26c.7.13,1.37.39,2.08.52,8,1.5,19.15-5.12,21.25-13.1l.3-1.48c.01,12.06-12.99,19.75-23.63,14.06Z"/>
        <path class="cls-1" d="M32.2,16.2l-.3,1.48c-2.1,7.98-13.25,14.61-21.25,13.1-.7-.13-1.37-.39-2.08-.52-2.8-1.5-5.18-3.76-6.62-6.62,1.95,2.84,6.01,3.3,9.16,3.01,7.17-.67,16.66-6.64,18.8-13.79.5-1.68.55-3.42-.07-5.08,1.59,2.68,2.35,5.28,2.35,8.42Z"/>
        <g>
          <path class="cls-1" d="M15.57.07c.24-.09.59-.07.85-.06,2.08.09,4.11.5,6.02,1.31.54.23,1.29.55,1.71.94,2.41,2.21,1.09,5.47-.5,7.73-3.19,4.53-9.7,8.4-15.14,9.36-2.76.49-7.25.56-8.26-2.74-.1-.31-.12-.65-.22-.95.09-2.6.85-5.4,2.18-7.64.05-.08.09-.15.17-.18-1.36,3.06.92,4,3.58,3.72,3.93-.42,9.48-3.68,11.62-7.03,1.51-2.35.98-4.31-2.03-4.46Z"/>
          <path class="cls-2" d="M15.57.07c3,.15,3.53,2.11,2.03,4.46-2.14,3.34-7.69,6.6-11.62,7.03-2.66.29-4.94-.66-3.58-3.72.94-2.12,3.67-4.49,5.65-5.64C10.07,1.01,13.2-.05,15.57.07Z"/>
        </g>
      </g>
    </g>
  </g>
</svg>