<?xml version="1.0" encoding="UTF-8"?>
<svg id="_Слой_2" data-name="Слой 2" xmlns="http://www.w3.org/2000/svg" xmlns:xlink="http://www.w3.org/1999/xlink" viewBox="0 0 390 764.27">
  <defs>
    <style>
      .cls-1, .cls-2 {
        stroke-width: 3px;
      }

      .cls-1, .cls-2, .cls-3 {
        fill: none;
      }

      .cls-1, .cls-2, .cls-4 {
        stroke-miterlimit: 10;
      }

      .cls-1, .cls-4 {
        stroke: #43474e;
      }

      .cls-5 {
        letter-spacing: -.02em;
      }

      .cls-6 {
        letter-spacing: -.04em;
      }

      .cls-2 {
        stroke: #1ae958;
      }

      .cls-7, .cls-8, .cls-9, .cls-10 {
        fill: #3a444d;
      }

      .cls-7, .cls-11 {
        font-size: 31.46px;
      }

      .cls-12 {
        letter-spacing: 0em;
      }

      .cls-13 {
        clip-path: url(#clippath-4);
      }

      .cls-14 {
        fill: #fcca0f;
      }

      .cls-15 {
        fill: url(#_Безымянный_градиент_12);
      }

      .cls-16 {
        letter-spacing: -.1em;
      }

      .cls-17 {
        fill: #00b856;
      }

      .cls-18 {
        fill: #969696;
      }

      .cls-18, .cls-9, .cls-10, .cls-19 {
        font-weight: 500;
      }

      .cls-18, .cls-10, .cls-20, .cls-19 {
        font-size: 14px;
      }

      .cls-18, .cls-10, .cls-19 {
        font-family: Montserrat-Medium, Montserrat;
      }

      .cls-21 {
        letter-spacing: -.01em;
      }

      .cls-22 {
        fill: #fafbfc;
      }

      .cls-23 {
        letter-spacing: -.04em;
      }

      .cls-24 {
        letter-spacing: -.03em;
      }

      .cls-9 {
        font-family: Unbounded-Medium, Unbounded;
        font-size: 18px;
        font-variation-settings: 'wght' 500;
      }

      .cls-25 {
        letter-spacing: -.02em;
      }

      .cls-26, .cls-4 {
        fill: #fff;
      }

      .cls-27 {
        letter-spacing: 0em;
      }

      .cls-28 {
        fill: url(#_Безымянный_градиент_7);
      }

      .cls-29 {
        fill: #090909;
      }

      .cls-30 {
        fill: #00adef;
      }

      .cls-31 {
        clip-path: url(#clippath-1);
      }

      .cls-32 {
        letter-spacing: 0em;
      }

      .cls-33 {
        letter-spacing: 0em;
      }

      .cls-34 {
        fill: #fe0032;
      }

      .cls-4 {
        stroke-width: 2px;
      }

      .cls-35 {
        letter-spacing: -.02em;
      }

      .cls-36 {
        letter-spacing: 0em;
      }

      .cls-37 {
        letter-spacing: -.01em;
      }

      .cls-38 {
        clip-path: url(#clippath-5);
      }

      .cls-39 {
        letter-spacing: 0em;
      }

      .cls-40 {
        letter-spacing: -.02em;
      }

      .cls-41 {
        clip-path: url(#clippath-3);
      }

      .cls-20 {
        font-family: Montserrat-SemiBold, Montserrat;
      }

      .cls-20, .cls-42, .cls-11 {
        font-weight: 600;
      }

      .cls-20, .cls-11, .cls-19 {
        fill: #43474e;
      }

      .cls-43 {
        letter-spacing: -.02em;
      }

      .cls-44 {
        fill: #f43590;
      }

      .cls-45 {
        fill: #f9fdfe;
      }

      .cls-46 {
        letter-spacing: 0em;
      }

      .cls-47 {
        letter-spacing: -.03em;
      }

      .cls-48 {
        letter-spacing: -.02em;
      }

      .cls-49 {
        letter-spacing: 0em;
      }

      .cls-50 {
        letter-spacing: -.02em;
      }

      .cls-51 {
        letter-spacing: 0em;
      }

      .cls-52 {
        letter-spacing: -.03em;
      }

      .cls-53 {
        font-family: Unbounded-Light, Unbounded;
        font-variation-settings: 'wght' 300;
        font-weight: 300;
      }

      .cls-42, .cls-11 {
        font-family: Unbounded-SemiBold, Unbounded;
        font-variation-settings: 'wght' 600;
      }

      .cls-54 {
        letter-spacing: -.02em;
      }

      .cls-55 {
        letter-spacing: 0em;
      }

      .cls-56 {
        clip-path: url(#clippath-2);
      }

      .cls-57 {
        fill: #fddc2c;
      }

      .cls-58 {
        fill: #fafafa;
      }

      .cls-59 {
        fill: #fdfdfa;
      }

      .cls-60 {
        letter-spacing: 0em;
      }

      .cls-61 {
        clip-path: url(#clippath);
      }

      .cls-62 {
        fill: #343434;
      }

      .cls-63 {
        letter-spacing: -.01em;
      }

      .cls-64 {
        fill: #eff4f4;
      }

      .cls-65 {
        letter-spacing: 0em;
      }

      .cls-66 {
        letter-spacing: -.04em;
      }
    </style>
    <clipPath id="clippath">
      <rect class="cls-3" width="390" height="763.78"/>
    </clipPath>
    <linearGradient id="_Безымянный_градиент_12" data-name="Безымянный градиент 12" x1="-.31" y1="76.14" x2="390" y2="76.14" gradientUnits="userSpaceOnUse">
      <stop offset="0" stop-color="#3ce74f"/>
      <stop offset="1" stop-color="#bfdd71"/>
    </linearGradient>
    <clipPath id="clippath-1">
      <circle class="cls-3" cx="274.35" cy="401.79" r="16.09"/>
    </clipPath>
    <clipPath id="clippath-2">
      <circle class="cls-3" cx="274.35" cy="358.67" r="16.09"/>
    </clipPath>
    <clipPath id="clippath-3">
      <circle class="cls-3" cx="314.48" cy="358.67" r="16.09"/>
    </clipPath>
    <clipPath id="clippath-4">
      <circle class="cls-3" cx="234.48" cy="401.79" r="16.09"/>
    </clipPath>
    <clipPath id="clippath-5">
      <rect class="cls-3" x="298.18" y="385.7" width="32.59" height="32.17" rx="16.09" ry="16.09"/>
    </clipPath>
    <linearGradient id="_Безымянный_градиент_7" data-name="Безымянный градиент 7" x1="21.81" y1="715.36" x2="367.57" y2="715.36" gradientUnits="userSpaceOnUse">
      <stop offset="0" stop-color="#bfdd71"/>
      <stop offset="1" stop-color="#3ce74f"/>
    </linearGradient>
  </defs>
  <g id="_Слой_2-2" data-name="Слой 2">
    <g>
      <g class="cls-61">
        <rect class="cls-15" x="-.31" width="390.31" height="152.27"/>
      </g>
      <path class="cls-22" d="M16,131.78h357.38c8.83,0,16,7.17,16,16v616.49H0V147.78C0,138.95,7.17,131.78,16,131.78Z"/>
      <g>
        <text class="cls-7" transform="translate(22.68 44.3)"><tspan class="cls-53"><tspan x="0" y="0">ОС</tspan><tspan class="cls-46" x="57.93" y="0">О</tspan><tspan class="cls-12" x="87.28" y="0">БЫЕ</tspan></tspan><tspan class="cls-53"><tspan x="0" y="27">СЕРВЕ</tspan><tspan class="cls-16" x="125.64" y="27">Р</tspan><tspan class="cls-6" x="146.34" y="27">А</tspan></tspan><tspan class="cls-42"><tspan x="0" y="64.76">ДЛЯ </tspan><tspan class="cls-23" x="99.02" y="64.76">В</tspan><tspan class="cls-66" x="125.39" y="64.76">А</tspan><tspan x="153.67" y="64.76">С</tspan></tspan></text>
        <g>
          <line class="cls-4" x1="352.91" y1="20.7" x2="369.96" y2="37.75"/>
          <line class="cls-4" x1="352.91" y1="37.75" x2="369.96" y2="20.7"/>
        </g>
      </g>
      <text class="cls-20" transform="translate(21.51 463.16)"><tspan x="0" y="0">ДО</tspan><tspan class="cls-27" x="23.25" y="0">С</tspan><tspan class="cls-24" x="33.24" y="0">Т</tspan><tspan class="cls-21" x="41.5" y="0">У</tspan><tspan x="51.17" y="0">ПНЫ ПО П</tspan><tspan class="cls-43" x="130.63" y="0">О</tspan><tspan x="142.18" y="0">ДПИС</tspan><tspan class="cls-40" x="186.65" y="0">К</tspan><tspan class="cls-33" x="196.43" y="0">Е</tspan><tspan x="205.74" y="0">:</tspan></text>
      <g>
        <g>
          <text class="cls-10" transform="translate(61.18 168.36)"><tspan x="0" y="0">Приори</tspan><tspan class="cls-5" x="59.16" y="0">т</tspan><tspan class="cls-54" x="65.74" y="0">е</tspan><tspan class="cls-39" x="74.23" y="0">тная п</tspan><tspan class="cls-60" x="120.72" y="0">о</tspan><tspan x="129.64" y="0">дде</tspan><tspan class="cls-25" x="157.02" y="0">р</tspan><tspan class="cls-51" x="166.43" y="0">ж</tspan><tspan class="cls-63" x="178.32" y="0">к</tspan><tspan x="186.55" y="0">а</tspan></text>
          <rect class="cls-1" x="23.17" y="152.27" width="24" height="23.85" rx="11.93" ry="11.93"/>
        </g>
        <g>
          <text class="cls-10" transform="translate(61.18 216.02)"><tspan class="cls-37" x="0" y="0">О</tspan><tspan class="cls-5" x="11.7" y="0">т</tspan><tspan class="cls-36" x="18.28" y="0">с</tspan><tspan x="26.18" y="0">у</tspan><tspan class="cls-5" x="34.17" y="0">т</tspan><tspan class="cls-55" x="40.75" y="0">с</tspan><tspan x="48.65" y="0">твие рекламы</tspan></text>
          <rect class="cls-1" x="23.17" y="199.93" width="24" height="23.85" rx="11.93" ry="11.93"/>
        </g>
        <g>
          <text class="cls-10" transform="translate(61.18 263.78)"><tspan x="0" y="0">Ловит да</tspan><tspan class="cls-35" x="66.55" y="0">ж</tspan><tspan x="78.22" y="0">е на пар</tspan><tspan class="cls-25" x="139.68" y="0">к</tspan><tspan x="147.82" y="0">ов</tspan><tspan class="cls-25" x="165.39" y="0">к</tspan><tspan x="173.54" y="0">е</tspan></text>
          <rect class="cls-1" x="23.17" y="247.69" width="24" height="23.85" rx="11.93" ry="11.93"/>
        </g>
      </g>
      <g>
        <rect class="cls-64" x="202.9" y="291.37" width="165.17" height="141.1" rx="16" ry="16"/>
        <text class="cls-10" transform="translate(215.81 314.09)"><tspan x="0" y="0">Опе</tspan><tspan class="cls-33" x="30.14" y="0">р</tspan><tspan x="39.7" y="0">а</tspan><tspan class="cls-5" x="47.95" y="0">т</tspan><tspan x="54.53" y="0">оры</tspan></text>
        <g>
          <g>
            <circle class="cls-29" cx="234.48" cy="358.67" r="16.09"/>
            <g>
              <path class="cls-58" d="M230.3,351.07v3.66h3.52s.09.04.09.09v3.06h-3.6v5.32h4.8v3.09h-3.69c-2.07,0-4.34-2.6-4.26-4.66v-10.55h3.15Z"/>
              <g>
                <rect class="cls-58" x="235.62" y="363.18" width="8.4" height="3.09"/>
                <g>
                  <path class="cls-58" d="M234.59,357.87c-.07-2.03,1.35-3.97,3.27-4.59,4.08-1.32,7.72,2.84,5.86,6.72-.58,1.2-2.35,2.67-3.73,2.67h-4.37v-3.09h4.03c.64,0,1.34-.83,1.43-1.43.38-2.43-3.32-2.77-3.4-.29h-3.09Z"/>
                  <rect class="cls-44" x="223.55" y="354.72" width="3.14" height="3.14"/>
                </g>
              </g>
            </g>
          </g>
          <g class="cls-31">
            <g>
              <path class="cls-29" d="M282.42,387.93c.45.11.89.45,1.28.72,1.82,1.28,3.28,2.9,4.41,4.8.62,1.65.57,3.4.07,5.08-2.14,7.16-11.63,13.12-18.8,13.79-3.15.29-7.21-.17-9.16-3.01-1.34-1.95-1.99-5.65-1.91-7.99.11.31.13.64.22.95,1.01,3.29,5.5,3.23,8.26,2.74,5.44-.96,11.95-4.83,15.14-9.36,1.59-2.26,2.91-5.52.5-7.73Z"/>
              <path class="cls-29" d="M266.83,415.94c.7.13,1.37.39,2.08.52,8,1.5,19.15-5.12,21.25-13.1l.3-1.48c.01,12.06-12.99,19.75-23.63,14.06Z"/>
              <path class="cls-14" d="M290.46,401.88l-.3,1.48c-2.1,7.98-13.25,14.61-21.25,13.1-.7-.13-1.37-.39-2.08-.52-2.8-1.5-5.18-3.76-6.62-6.62,1.95,2.84,6.01,3.3,9.16,3.01,7.17-.67,16.66-6.64,18.8-13.79.5-1.68.55-3.42-.07-5.08,1.59,2.68,2.35,5.28,2.35,8.42Z"/>
              <g>
                <path class="cls-14" d="M273.84,385.74c.24-.09.59-.07.85-.06,2.08.09,4.11.5,6.02,1.31.54.23,1.29.55,1.71.94,2.41,2.21,1.09,5.47-.5,7.73-3.19,4.53-9.7,8.4-15.14,9.36-2.76.49-7.25.56-8.26-2.74-.1-.31-.12-.65-.22-.95.09-2.6.85-5.4,2.18-7.64.05-.08.09-.15.17-.18-1.36,3.06.92,4,3.58,3.72,3.93-.42,9.48-3.68,11.62-7.03,1.51-2.35.98-4.31-2.03-4.46Z"/>
                <path class="cls-29" d="M273.84,385.74c3,.15,3.53,2.11,2.03,4.46-2.14,3.34-7.69,6.6-11.62,7.03-2.66.29-4.94-.66-3.58-3.72.94-2.12,3.67-4.49,5.65-5.64,2.04-1.18,5.16-2.24,7.53-2.12Z"/>
              </g>
            </g>
          </g>
          <g class="cls-56">
            <g>
              <path class="cls-57" d="M310.35,324.83v71.99h-71.99v-71.99h71.99ZM264.2,350.35c-.2.09-.35.26-.35.49.16,3.3-.19,6.76,0,10.04.31,5.36,3.87,6.57,7.91,8.87.57.33,2.05,1.42,2.64,1.4.3-.01,1.78-.89,2.18-1.11,4.33-2.42,8.26-4.01,8.28-9.72,0-2.3-.04-4.64-.1-6.93-.02-.81.1-1.87,0-2.63-.02-.13-.02-.24-.14-.33l-20.42-.06Z"/>
              <g>
                <path class="cls-59" d="M264.2,350.35l20.42.06c.11.09.12.2.14.33.1.77-.03,1.82,0,2.63.07,2.3.11,4.64.1,6.93-.02,5.71-3.95,7.3-8.28,9.72-.39.22-1.87,1.1-2.18,1.11-.59.03-2.06-1.07-2.64-1.4-4.04-2.29-7.6-3.51-7.91-8.87-.19-3.28.15-6.74,0-10.04,0-.23.16-.4.35-.49ZM279.41,358.95v-3.33s-.13-.14-.14-.14h-9.98v3.47c.31-.09.46-.33.78-.49.22-.11,1.03-.36,1.24-.36h1.36v5.01c0,.47-.53,1.15-.56,1.64h4.5c-.23-.63-.59-1.23-.66-1.92-.05-.49-.09-4.45.04-4.65.15-.21,1.63-.05,1.95.03.58.14.96.5,1.48.72Z"/>
                <path class="cls-62" d="M279.41,358.95c-.52-.23-.9-.58-1.48-.72-.32-.08-1.8-.25-1.95-.03-.13.19-.09,4.15-.04,4.65.07.69.43,1.29.66,1.92h-4.5c.03-.49.56-1.17.56-1.64v-5.01h-1.36c-.21,0-1.01.25-1.24.36-.32.15-.47.39-.78.49v-3.47h9.98s.14.13.14.14v3.33Z"/>
              </g>
            </g>
          </g>
          <g class="cls-41">
            <g>
              <path class="cls-30" d="M340.58,336.53v52.19h-52.19v-52.19h52.19ZM318.1,349.42c-.72.71-.28,1.99-.51,2.94-.79,3.27-5.38,3.29-6.21,0-.24-.95.22-2.2-.5-2.92-.78-.79-2.14-.22-2.26.81-.34,3.04,1.04,5.8,3.93,6.91.24.09.56.07.6.33.1.78-.08,1.78,0,2.58-2.19.41-3.92,2.31-4.38,4.46-.14.65-.28,2.36-.04,2.94.26.63,1.05.96,1.67.72,1.32-.5.72-2.12.97-3.2.63-2.67,4.14-3.4,5.7-1.12.81,1.18.47,1.87.59,3.12.17,1.72,2.53,1.67,2.67,0,.2-2.34-.5-4.58-2.42-5.99-.6-.44-1.37-.86-2.11-.94v-2.78c2.22-.43,3.92-2.34,4.39-4.51.15-.69.29-2.44-.05-3.05-.41-.73-1.45-.91-2.06-.31ZM316.76,365.73c0-1.26-1.02-2.27-2.27-2.27s-2.27,1.02-2.27,2.27,1.02,2.27,2.27,2.27,2.27-1.02,2.27-2.27ZM309.13,371.16c-.15-.1-.87-.14-.85.12l1.53,2.41.05,2.33c.05.07.7.13.79.03.17-.19-.03-1.91.08-2.35.15-.58,1.26-1.69,1.51-2.32.17-.43-.58-.31-.83-.2l-1.13,1.71-1.15-1.72ZM316.57,373.18c.6-.02,1.02.21.87-.61-.06-.31-.72-.02-.84-.2-.11-.16.1-.73-.14-.84-.12-.06-.56-.05-.66.02-.14.1-.06.85-.09.88-.04.04-.5-.08-.53.14-.11.96.4.49.53.61.16.16-.33,2.29.38,2.84.41.32,1.56.1,1.53-.25,0-.06-.24-.45-.28-.48-.16-.1-.36.17-.55.15-.06,0-.21-.11-.21-.15v-2.12ZM312.13,375.77c.33.31.89.47,1.34.42,2.18-.22,1.98-4.2-.56-3.81-1.44.22-1.74,2.47-.78,3.39ZM320.69,376.08v-2.64c0-.09-.2-.57-.26-.66-.38-.52-1.38-.51-1.9-.23-.13.07-.48.35-.49.49,0,.1.43.43.54.42s.27-.24.43-.32c.42-.19.89-.03.81.49-.89.02-2.02.33-1.98,1.42s1.25,1.42,2.06.9c.12.29.53.14.78.12Z"/>
              <g>
                <path class="cls-30" d="M312.13,375.77c-.97-.92-.67-3.16.78-3.39,2.54-.4,2.74,3.58.56,3.81-.45.05-1.01-.11-1.34-.42ZM313.88,375.18c.42-.55.39-1.86-.39-2.08-1.32-.38-1.46,2.17-.42,2.33.3.05.63,0,.81-.25Z"/>
                <path class="cls-30" d="M309.13,371.16l1.15,1.72,1.13-1.71c.25-.11,1-.23.83.2-.25.63-1.35,1.74-1.51,2.32-.12.44.08,2.16-.08,2.35-.09.1-.74.04-.79-.03l-.05-2.33-1.53-2.41c-.02-.26.69-.22.85-.12Z"/>
                <path class="cls-30" d="M316.57,373.18v2.12s.14.14.21.15c.19.02.39-.25.55-.15.04.03.28.42.28.48.03.35-1.12.57-1.53.25-.7-.55-.22-2.69-.38-2.84-.12-.12-.64.35-.53-.61.03-.22.49-.11.53-.14.03-.03-.05-.78.09-.88.1-.07.55-.08.66-.02.24.12.03.68.14.84.12.17.79-.11.84.2.15.81-.27.59-.87.61Z"/>
                <path class="cls-30" d="M313.88,375.18c-.19.24-.52.3-.81.25-1.04-.16-.9-2.72.42-2.33.78.23.81,1.53.39,2.08Z"/>
                <g>
                  <path class="cls-45" d="M318.1,349.42c.61-.6,1.65-.42,2.06.31.34.6.2,2.35.05,3.05-.46,2.17-2.17,4.08-4.39,4.51v2.78c.74.08,1.51.5,2.1.94,1.92,1.42,2.62,3.66,2.42,5.99-.14,1.66-2.5,1.72-2.67,0-.12-1.25.21-1.94-.59-3.12-1.56-2.28-5.08-1.55-5.7,1.12-.25,1.08.35,2.7-.97,3.2-.62.24-1.41-.1-1.67-.72-.24-.58-.1-2.29.04-2.94.46-2.15,2.19-4.06,4.38-4.46-.08-.81.1-1.8,0-2.58-.03-.26-.35-.24-.6-.33-2.89-1.11-4.27-3.88-3.93-6.91.12-1.03,1.47-1.6,2.26-.81.72.72.26,1.97.5,2.92.83,3.29,5.41,3.27,6.21,0,.23-.95-.21-2.23.51-2.94Z"/>
                  <circle class="cls-45" cx="314.49" cy="365.73" r="2.27"/>
                </g>
              </g>
              <path class="cls-30" d="M320.69,376.08c-.25.03-.67.17-.78-.12-.81.52-2.02.15-2.06-.9s1.09-1.4,1.98-1.42c.08-.52-.39-.69-.81-.49-.16.07-.32.31-.43.32s-.55-.32-.54-.42c.01-.14.37-.43.49-.49.52-.28,1.52-.29,1.9.23.07.09.26.58.26.66v2.64ZM319.88,374.34c-.47-.05-1.68.33-1.1.96.32.35,1.1.03,1.1-.12v-.84Z"/>
              <path class="cls-30" d="M319.88,374.34v.84c0,.15-.79.46-1.1.12-.58-.63.64-1.01,1.1-.96Z"/>
            </g>
          </g>
          <g class="cls-13">
            <g>
              <path class="cls-34" d="M250.57,385.7v32.17s-32.17,0-32.17,0v-32.17h32.17ZM244.78,392.62s.03-.05.03-.06v-1.06l-.04-.04h-6.32v1.16h2.45l.04.04v4.54h1.38v-4.57h2.46ZM225.98,391.48h-1.99v5.68h1.38v-4.02l1.75,3.37,1.26.03,1.8-3.4v4.02h1.38v-5.68h-1.99l-1.8,3.75-1.8-3.75ZM244.78,408.45c-.11-1.87-2.08-2.09-3.58-2.01-1.71.09-2.66.98-2.75,2.7-.14,2.72,1.69,3.47,4.11,3.18,1.17-.14,2.16-.69,2.23-1.98h-1.38c-.07.66-.68.85-1.24.9-.81.08-2,0-2.24-.95-.09-.36-.1-1.34-.02-1.71.22-1.02,1.32-1.09,2.18-1.03.61.04,1.22.22,1.32.9h1.38Z"/>
              <polygon class="cls-26" points="225.98 391.48 227.78 395.23 229.58 391.48 231.56 391.48 231.56 397.16 230.18 397.16 230.18 393.14 228.38 396.54 227.13 396.51 225.38 393.14 225.38 397.16 224 397.16 224 391.48 225.98 391.48"/>
              <path class="cls-26" d="M244.78,408.45h-1.38c-.1-.68-.71-.87-1.32-.9-.87-.05-1.96.02-2.18,1.03-.08.37-.08,1.35.02,1.71.25.95,1.43,1.03,2.24.95.57-.06,1.17-.25,1.24-.9h1.38c-.07,1.29-1.06,1.84-2.23,1.98-2.41.3-4.25-.46-4.11-3.18.09-1.72,1.04-2.61,2.75-2.7,1.5-.08,3.47.14,3.58,2.01Z"/>
              <path class="cls-26" d="M244.78,392.62h-2.46v4.57h-1.38v-4.54l-.04-.04h-2.45v-1.16h6.32l.04.04v1.06s-.03.04-.03.06Z"/>
            </g>
          </g>
          <g class="cls-38">
            <rect class="cls-26" x="298.18" y="382.19" width="33.17" height="36.83"/>
            <g>
              <path class="cls-17" d="M316.67,384.99c2.72.21,5.57,1.38,7.78,2.91,5.89,4.09,8.53,11.47,6.69,18.35-2.11,7.84-9.84,13.23-18.15,12.5v-14.81h2.29s.14.16.28.11l-.11-.22c.43.09,1.23-.71,1.23-1.04v-17.81ZM318.49,408.96c0-1.2-1-2.17-2.23-2.17s-2.23.97-2.23,2.17,1,2.17,2.23,2.17,2.23-.97,2.23-2.17ZM323.57,408.97c0-1.2-1-2.18-2.23-2.18s-2.23.98-2.23,2.18,1,2.18,2.23,2.18,2.23-.98,2.23-2.18ZM328.63,408.97c0-1.2-1-2.18-2.23-2.18s-2.23.98-2.23,2.18,1,2.18,2.23,2.18,2.23-.98,2.23-2.18Z"/>
              <path class="cls-17" d="M314.44,384.77v16.99h-2.62c-.26,0-1.06.78-1.06,1.03v15.63c-6.05-1.32-11.07-5.92-12.8-11.74-3.24-10.96,4.86-21.72,16.48-21.91ZM313.39,396.67c0-1.2-1-2.18-2.23-2.18s-2.23.98-2.23,2.18,1,2.18,2.23,2.18,2.23-.98,2.23-2.18Z"/>
            </g>
          </g>
        </g>
      </g>
      <g>
        <g>
          <g>
            <text class="cls-19" transform="translate(34.68 508.6)"><tspan x="0" y="0">1 Ме</tspan><tspan class="cls-50" x="31.22" y="0">с</tspan><tspan x="38.98" y="0">яц</tspan></text>
            <text class="cls-18" transform="translate(321.77 508.6)"><tspan x="0" y="0">150 Р</tspan></text>
          </g>
          <rect class="cls-2" x="21.81" y="481.4" width="345.76" height="45.39" rx="16" ry="16"/>
        </g>
        <g>
          <rect class="cls-22" x="21.81" y="538.89" width="345.76" height="33.29"/>
          <g>
            <text class="cls-19" transform="translate(34.68 553.99)"><tspan x="0" y="0">3 Ме</tspan><tspan class="cls-50" x="34.05" y="0">с</tspan><tspan x="41.8" y="0">яца</tspan></text>
            <text class="cls-18" transform="translate(316.28 553.99)"><tspan x="0" y="0">400 Р</tspan></text>
          </g>
        </g>
        <g>
          <rect class="cls-22" x="21.81" y="572.18" width="345.76" height="45.39"/>
          <g>
            <text class="cls-19" transform="translate(34.68 599.38)"><tspan x="0" y="0">6 Ме</tspan><tspan class="cls-50" x="34.68" y="0">с</tspan><tspan x="42.43" y="0">яцев</tspan></text>
            <text class="cls-18" transform="translate(317.55 599.38)"><tspan class="cls-48" x="0" y="0">7</tspan><tspan x="8.09" y="0">00 Р</tspan></text>
          </g>
        </g>
        <g>
          <rect class="cls-22" x="21.81" y="617.57" width="345.76" height="45.39"/>
          <g>
            <text class="cls-19" transform="translate(34.68 644.77)"><tspan x="0" y="0">12 Ме</tspan><tspan class="cls-50" x="39.26" y="0">с</tspan><tspan x="47.01" y="0">яцев</tspan></text>
            <text class="cls-18" transform="translate(312.44 644.77)"><tspan x="0" y="0">1</tspan><tspan class="cls-49" x="5.18" y="0">2</tspan><tspan x="13.2" y="0">00 Р</tspan></text>
          </g>
        </g>
      </g>
      <g>
        <rect class="cls-64" x="21.81" y="291.37" width="165.29" height="141.1" rx="16" ry="16"/>
        <text class="cls-10" transform="translate(33.96 314.09)"><tspan class="cls-54" x="0" y="0">С</tspan><tspan x="9.74" y="0">ерве</tspan><tspan class="cls-33" x="45.56" y="0">р</tspan><tspan x="55.12" y="0">а</tspan></text>
        <text class="cls-11" transform="translate(36.88 413.54)"><tspan x="0" y="0">60+</tspan></text>
      </g>
      <g>
        <rect class="cls-28" x="21.81" y="683.06" width="345.76" height="64.6" rx="16" ry="16"/>
        <text class="cls-9" transform="translate(39.39 722.39)"><tspan x="0" y="0">П</tspan><tspan class="cls-52" x="16.56" y="0">О</tspan><tspan class="cls-65" x="33.23" y="0">ДКЛ</tspan><tspan class="cls-32" x="84.98" y="0">Ю</tspan><tspan x="107.59" y="0">ЧИТ</tspan><tspan class="cls-47" x="154.91" y="0">Ь</tspan></text>
        <polygon class="cls-8" points="335.82 706.75 335.82 709.21 348.04 709.21 334.17 723.08 335.91 724.82 349.78 710.95 349.78 723.17 352.24 723.17 352.24 706.75 335.82 706.75"/>
      </g>
    </g>
  </g>
</svg>