<?xml version="1.0" encoding="UTF-8"?>
<svg id="_Слой_2" data-name="Слой 2" xmlns="http://www.w3.org/2000/svg" xmlns:xlink="http://www.w3.org/1999/xlink" viewBox="0 0 399.22 397.26">
  <defs>
    <style>
      .cls-1 {
        fill: #2d9aff;
      }

      .cls-2 {
        fill: #e9e9e9;
      }

      .cls-3 {
        filter: url(#drop-shadow-1);
      }
    </style>
    <filter id="drop-shadow-1" x="-20.84" y="-20.85" width="443" height="441" filterUnits="userSpaceOnUse">
      <feOffset dx="1" dy="1"/>
      <feGaussianBlur result="blur" stdDeviation="7"/>
      <feFlood flood-color="#000" flood-opacity=".75"/>
      <feComposite in2="blur" operator="in"/>
      <feComposite in="SourceGraphic"/>
    </filter>
  </defs>
  <g id="_Слой_3" data-name="Слой 3">
    <g class="cls-3">
      <rect class="cls-1" x="273.36" y="271.39" width="125.86" height="125.86" rx="19.67" ry="19.67"/>
      <path class="cls-2" d="M399.22,19.67v84.82c0,5.22-2.07,10.22-5.76,13.91L120.36,391.5c-3.69,3.69-8.69,5.76-13.91,5.76H19.67c-10.86,0-19.67-8.8-19.67-19.67v-83.73c0-5.22,2.07-10.22,5.76-13.91l8.56-8.56L159.83,125.86H19.67c-10.86,0-19.67-8.8-19.67-19.67V19.67C0,8.8,8.8,0,19.67,0h359.89c10.86,0,19.67,8.8,19.67,19.67Z"/>
    </g>
  </g>
</svg>